<svg xmlns="http://www.w3.org/2000/svg" width="200" height="200" viewBox="0 0 200 200">
  <g id="组_1038" data-name="组 1038" transform="translate(-0.029)">
    <path id="椭圆_22" data-name="椭圆 22" d="M100,2A98.734,98.734,0,0,0,80.247,3.991,97.451,97.451,0,0,0,45.209,18.736,98.292,98.292,0,0,0,9.7,61.855,97.494,97.494,0,0,0,3.991,80.247a98.974,98.974,0,0,0,0,39.505,97.451,97.451,0,0,0,14.745,35.039A98.292,98.292,0,0,0,61.855,190.3a97.494,97.494,0,0,0,18.393,5.709,98.974,98.974,0,0,0,39.505,0,97.451,97.451,0,0,0,35.039-14.745A98.292,98.292,0,0,0,190.3,138.145a97.494,97.494,0,0,0,5.709-18.393,98.974,98.974,0,0,0,0-39.505,97.451,97.451,0,0,0-14.745-35.039A98.292,98.292,0,0,0,138.145,9.7a97.494,97.494,0,0,0-18.393-5.709A98.734,98.734,0,0,0,100,2m0-2A100,100,0,1,1,0,100,100,100,0,0,1,100,0Z" transform="translate(0.029)" fill="#f8b616"/>
    <path id="phone" d="M70.658,94.244,55.989,65.935c-.033.017-8.224,4.041-8.6,4.212-9.332,4.525-28.326-32.58-19.2-37.471L36.866,28.4,22.313,0,13.539,4.329C-16.466,19.973,31.175,112.576,61.868,98.548c.5-.229,8.757-4.287,8.791-4.3Z" transform="translate(62.66 48.841)" fill="#f8b616"/>
  </g>
</svg>
