<svg xmlns="http://www.w3.org/2000/svg" width="200" height="200" viewBox="0 0 200 200">
  <g id="组_1039" data-name="组 1039" transform="translate(-0.057)">
    <path id="椭圆_24" data-name="椭圆 24" d="M100,2A98.734,98.734,0,0,0,80.247,3.991,97.451,97.451,0,0,0,45.209,18.736,98.292,98.292,0,0,0,9.7,61.855,97.494,97.494,0,0,0,3.991,80.247a98.974,98.974,0,0,0,0,39.505,97.451,97.451,0,0,0,14.745,35.039A98.292,98.292,0,0,0,61.855,190.3a97.494,97.494,0,0,0,18.393,5.709,98.974,98.974,0,0,0,39.505,0,97.451,97.451,0,0,0,35.039-14.745A98.292,98.292,0,0,0,190.3,138.145a97.494,97.494,0,0,0,5.709-18.393,98.974,98.974,0,0,0,0-39.505,97.451,97.451,0,0,0-14.745-35.039A98.292,98.292,0,0,0,138.145,9.7a97.494,97.494,0,0,0-18.393-5.709A98.734,98.734,0,0,0,100,2m0-2A100,100,0,1,1,0,100,100,100,0,0,1,100,0Z" transform="translate(0.057)" fill="#f8b616"/>
    <text id="_" data-name="?" transform="translate(72.057 142)" fill="#f8b616" font-size="120" font-family="Roboto-Medium, Roboto" font-weight="500" letter-spacing="0.05em"><tspan x="0" y="0">?</tspan></text>
  </g>
</svg>
