<svg id="组_1037" data-name="组 1037" xmlns="http://www.w3.org/2000/svg" width="200" height="200" viewBox="0 0 200 200">
  <path id="椭圆_21" data-name="椭圆 21" d="M100,2A98.734,98.734,0,0,0,80.247,3.991,97.451,97.451,0,0,0,45.209,18.736,98.292,98.292,0,0,0,9.7,61.855,97.494,97.494,0,0,0,3.991,80.247a98.974,98.974,0,0,0,0,39.505,97.451,97.451,0,0,0,14.745,35.039A98.292,98.292,0,0,0,61.855,190.3a97.494,97.494,0,0,0,18.393,5.709,98.974,98.974,0,0,0,39.505,0,97.451,97.451,0,0,0,35.039-14.745A98.292,98.292,0,0,0,190.3,138.145a97.494,97.494,0,0,0,5.709-18.393,98.974,98.974,0,0,0,0-39.505,97.451,97.451,0,0,0-14.745-35.039A98.292,98.292,0,0,0,138.145,9.7a97.494,97.494,0,0,0-18.393-5.709A98.734,98.734,0,0,0,100,2m0-2A100,100,0,1,1,0,100,100,100,0,0,1,100,0Z" fill="#f8b616"/>
  <circle id="椭圆_23" data-name="椭圆 23" cx="50" cy="50" r="50" transform="translate(50 50)" fill="#f8b616"/>
  <path id="路径_72" data-name="路径 72" d="M7499.646,1030.158H7477a1,1,0,0,1-1-1v-30.9a1,1,0,0,1,2,0v29.9h21.646a1,1,0,0,1,0,2Z" transform="translate(-7377.135 -930.322)" fill="#fff"/>
</svg>
